# xmcd
#
# Track frame offsets:
#	150
#	23727
#	42883
#	58522
#	76146
#	91405
#	106823
#	136380
#	154944
#	168622
#
# Disc length: 2411 seconds
#
# Revision: 0
# Processed by: cddbd v1.5.2PL0 Copyright (c) Steve Scherf et al.
# Submitted via: EasyCDDAExtractor 16.0.8.2
#
DISCID=7509690a
DTITLE=Συλλογικός δίσκος - Νεάρχου παράπλους-Τρ. έφ. νοτιάς
DYEAR=1996
DGENRE=Παραδοσιακή
TTITLE0=Θεοχαράκης Μανόλης-Ψαραδέλλη Γεωργία - Το παράπονό του (Κανελόριζα)[πα
TTITLE0=ραδ. διασκ. ΝΓράψα κ ΜανΘεοχαράκη]
TTITLE1=Ψαραδέλλη Γεωργία - Η προσμονή της (Τα καλοκαίρια τα μικρά)[ΜΘεοχαράκη
TTITLE1=ΜΒάβουλα]
TTITLE2=Ψαραδέλλη Γεωργία - Το ονείρεμά της (Άνοιξε σκέψη τα φτερά σου)[ΜΘεοχα
TTITLE2=ράκη-ΜΒάβουλα]
TTITLE3=Θεοχαράκης Μανόλης-Γρράψας Νίκος - Ο αποχωρισμός (Το τζιβαέρι)[ΓΨαραδέ
TTITLE3=λληΔΓιαννίσηςΔιασκΝΓράψα]
TTITLE4=Θεοχαράκης Μανόλης-Κουτσάκη Ειρήνη - Η συνάντησή τους (Βαλκανικό)[ΝΓρά
TTITLE4=ψας, παραδ. διασκ ΝΓράψα]
TTITLE5=Θεοχαράκης Μανόλης - Η αναχώρησή της (Η πικροκυματούσα)[ΜΘεοχαράκη-ΓΖα
TTITLE5=λοκώστα]
TTITLE6=Ψαραδέλλη Γεωργία - Ο κρυφός καημός της (Κρυφά για σένα θα πονώ)[παρ. 
TTITLE6=διασκ ΝΓράψα]
TTITLE7=Θεοχαράκης Μανόλης - Ο πόθος του (Το κατσαρρό σου τ' άρμενο)[παρ. διασ
TTITLE7=κ ΝΓράψα-ΦΣημαντηράκη]
TTITLE8=Θεοχαράκης Μανόλης-Ψαραδέλλη Γεωργία - Ο ποιητής (Οι Σειρήνες)[ΝΓράψας
TTITLE8=, ΦΣημαντηράκη-ΜΘεοχαράκη]
TTITLE9=Ψαραδέλλη Γεωργία - Η θεά (Στις φυλλωσιές του νου)[ΜΤζορμπατζάκη-ΜΒάβο
TTITLE9=υλα]
EXTD=
EXTT0=
EXTT1=
EXTT2=
EXTT3=
EXTT4=
EXTT5=
EXTT6=
EXTT7=
EXTT8=
EXTT9=
PLAYORDER=
